<?xml version="1.0" encoding="UTF-8"?>
<!DOCTYPE svg PUBLIC "-//W3C//DTD SVG 1.1//EN" "http://www.w3.org/Graphics/SVG/1.1/DTD/svg11.dtd">
<svg xmlns="http://www.w3.org/2000/svg" version="1.1" width="3201px" height="3201px" style="shape-rendering:geometricPrecision; text-rendering:geometricPrecision; image-rendering:optimizeQuality; fill-rule:evenodd; clip-rule:evenodd" xmlns:xlink="http://www.w3.org/1999/xlink">
<g><path style="opacity:0.999" fill="#000000" d="M 2529.5,1306.5 C 2528.47,1306.9 2528.31,1307.56 2529,1308.5C 2591.33,1370.83 2653.67,1433.17 2716,1495.5C 2716.67,1496.17 2716.67,1496.83 2716,1497.5C 2170.83,2042.67 1625.67,2587.83 1080.5,3133C 1055.5,3151 1030.5,3151 1005.5,3133C 692.667,2820.17 379.833,2507.33 67,2194.5C 50.3333,2169.83 50.3333,2145.17 67,2120.5C 612.667,1574.83 1158.33,1029.17 1704,483.5C 1767,546.5 1830,609.5 1893,672.5C 1893.46,671.906 1893.63,671.239 1893.5,670.5C 2099.8,464.701 2305.97,258.701 2512,52.5C 2724.01,264.347 2935.85,476.347 3147.5,688.5C 2941.81,894.854 2735.81,1100.85 2529.5,1306.5 Z M 2352.5,403.5 C 2354.01,404.836 2355.68,406.003 2357.5,407C 2398.35,447.68 2439.01,488.514 2479.5,529.5C 2437.85,571.653 2396.01,613.653 2354,655.5C 2311.81,613.306 2269.64,571.14 2227.5,529C 2269.37,487.299 2311.03,445.465 2352.5,403.5 Z M 2669.5,720.5 C 2671.3,722.112 2673.3,723.612 2675.5,725C 2716.01,765.347 2756.35,805.847 2796.5,846.5C 2754.85,888.653 2713.01,930.653 2671,972.5C 2628.78,930.279 2586.61,888.113 2544.5,846C 2586.37,804.299 2628.03,762.465 2669.5,720.5 Z M 606.5,2106.5 C 612.974,2106.12 618.974,2107.62 624.5,2111C 779.333,2265.83 934.167,2420.67 1089,2575.5C 1093.93,2585.07 1093.6,2594.4 1088,2603.5C 1040.83,2650.67 993.667,2697.83 946.5,2745C 935.075,2751.69 924.408,2750.69 914.5,2742C 760.639,2588.47 607.139,2434.64 454,2280.5C 449.071,2270.93 449.404,2261.6 455,2252.5C 502.167,2205.33 549.333,2158.17 596.5,2111C 599.815,2109.17 603.149,2107.67 606.5,2106.5 Z"/></g>
<g><path style="opacity:1" fill="#fefefe" d="M 2511.5,78.5 C 2714.97,281.465 2918.3,484.632 3121.5,688C 2918.33,891.167 2715.17,1094.33 2512,1297.5C 2308.83,1094.33 2105.67,891.167 1902.5,688C 2105.7,484.965 2308.7,281.799 2511.5,78.5 Z M 2352.5,403.5 C 2311.03,445.465 2269.37,487.299 2227.5,529C 2269.64,571.14 2311.81,613.306 2354,655.5C 2396.01,613.653 2437.85,571.653 2479.5,529.5C 2439.01,488.514 2398.35,447.68 2357.5,407C 2355.68,406.003 2354.01,404.836 2352.5,403.5 Z M 2669.5,720.5 C 2628.03,762.465 2586.37,804.299 2544.5,846C 2586.61,888.113 2628.78,930.279 2671,972.5C 2713.01,930.653 2754.85,888.653 2796.5,846.5C 2756.35,805.847 2716.01,765.347 2675.5,725C 2673.3,723.612 2671.3,722.112 2669.5,720.5 Z"/></g>
<g><path style="opacity:0.933" fill="#000000" d="M 2352.5,381.5 C 2356.67,382.044 2360.67,383.21 2364.5,385C 2406.33,426.833 2448.17,468.667 2490,510.5C 2492.67,513.833 2495.33,517.167 2498,520.5C 2500.14,527.494 2499.48,534.16 2496,540.5C 2452.17,584.333 2408.33,628.167 2364.5,672C 2358.49,675.413 2352.16,676.08 2345.5,674C 2342.17,671.333 2338.83,668.667 2335.5,666C 2294,624.5 2252.5,583 2211,541.5C 2206.32,532.93 2206.65,524.597 2212,516.5C 2255.83,472.667 2299.67,428.833 2343.5,385C 2346.57,383.704 2349.57,382.538 2352.5,381.5 Z M 2352.5,403.5 C 2311.03,445.465 2269.37,487.299 2227.5,529C 2269.64,571.14 2311.81,613.306 2354,655.5C 2396.01,613.653 2437.85,571.653 2479.5,529.5C 2439.01,488.514 2398.35,447.68 2357.5,407C 2355.68,406.003 2354.01,404.836 2352.5,403.5 Z"/></g>
<g><path style="opacity:0.369" fill="#0a0a0b" d="M 1893.5,670.5 C 1893.63,671.239 1893.46,671.906 1893,672.5C 1830,609.5 1767,546.5 1704,483.5C 1158.33,1029.17 612.667,1574.83 67,2120.5C 50.3333,2145.17 50.3333,2169.83 67,2194.5C 379.833,2507.33 692.667,2820.17 1005.5,3133C 1030.5,3151 1055.5,3151 1080.5,3133C 1625.67,2587.83 2170.83,2042.67 2716,1497.5C 2716.67,1496.83 2716.67,1496.17 2716,1495.5C 2653.67,1433.17 2591.33,1370.83 2529,1308.5C 2528.31,1307.56 2528.47,1306.9 2529.5,1306.5C 2592.13,1369.63 2654.97,1432.63 2718,1495.5C 2718.67,1496.17 2718.67,1496.83 2718,1497.5C 2172.17,2043.33 1626.33,2589.17 1080.5,3135C 1052.87,3152.75 1026.2,3151.41 1000.5,3131C 690,2820.5 379.5,2510 69,2199.5C 47.0029,2171.49 47.0029,2143.49 69,2115.5C 613.5,1571 1158,1026.5 1702.5,482C 1703.17,481.333 1703.83,481.333 1704.5,482C 1767.37,545.035 1830.37,607.868 1893.5,670.5 Z M 606.5,2106.5 C 603.149,2107.67 599.815,2109.17 596.5,2111C 549.333,2158.17 502.167,2205.33 455,2252.5C 449.404,2261.6 449.071,2270.93 454,2280.5C 607.139,2434.64 760.639,2588.47 914.5,2742C 924.408,2750.69 935.075,2751.69 946.5,2745C 993.667,2697.83 1040.83,2650.67 1088,2603.5C 1093.6,2594.4 1093.93,2585.07 1089,2575.5C 934.167,2420.67 779.333,2265.83 624.5,2111C 618.974,2107.62 612.974,2106.12 606.5,2106.5 Z"/></g>
<g><path style="opacity:0.933" fill="#000000" d="M 2669.5,699.5 C 2674.04,699.884 2678.37,701.051 2682.5,703C 2724.33,744.833 2766.17,786.667 2808,828.5C 2817.17,837.165 2818.84,847.165 2813,858.5C 2769.17,902.333 2725.33,946.167 2681.5,990C 2678.13,991.551 2674.63,992.717 2671,993.5C 2667.37,992.717 2663.87,991.551 2660.5,990C 2616.03,946.528 2571.86,902.694 2528,858.5C 2523.36,850.758 2523.36,843.092 2528,835.5C 2572.17,791.333 2616.33,747.167 2660.5,703C 2663.57,701.704 2666.57,700.538 2669.5,699.5 Z M 2669.5,720.5 C 2628.03,762.465 2586.37,804.299 2544.5,846C 2586.61,888.113 2628.78,930.279 2671,972.5C 2713.01,930.653 2754.85,888.653 2796.5,846.5C 2756.35,805.847 2716.01,765.347 2675.5,725C 2673.3,723.612 2671.3,722.112 2669.5,720.5 Z"/></g>
<g><path style="opacity:1" fill="#fefefe" d="M 1464.5,1139.5 C 1480.4,1137.96 1495.73,1140.13 1510.5,1146C 1629.42,1194.2 1748.42,1242.2 1867.5,1290C 1890.27,1300.77 1906.1,1317.93 1915,1341.5C 1962.14,1457.91 2009.47,1574.25 2057,1690.5C 2068.42,1723.73 2062.75,1753.73 2040,1780.5C 1963.14,1857.69 1885.97,1934.53 1808.5,2011C 1797.13,2018.13 1785.13,2024.13 1772.5,2029C 1629.49,2083.81 1482.82,2096.47 1332.5,2067C 1283.96,2055.71 1236.96,2040.04 1191.5,2020C 1183.55,2013.38 1177.05,2005.55 1172,1996.5C 1137.61,1918.5 1118.94,1836.83 1116,1751.5C 1112.67,1634.83 1132.33,1522.17 1175,1413.5C 1179.17,1405.83 1183.83,1398.49 1189,1391.5C 1265.83,1314.67 1342.67,1237.83 1419.5,1161C 1432.74,1150.05 1447.74,1142.88 1464.5,1139.5 Z"/></g>
<g><path style="opacity:1" fill="#000000" d="M 1469.5,1220.5 C 1473.6,1220.23 1477.6,1220.73 1481.5,1222C 1599.5,1270 1717.5,1318 1835.5,1366C 1883.24,1483.89 1930.57,1601.89 1977.5,1720C 1977.46,1721.97 1976.96,1723.8 1976,1725.5C 1901.83,1799.67 1827.67,1873.83 1753.5,1948C 1614.57,2004.87 1471.91,2016.87 1325.5,1984C 1297.09,1976.86 1269.42,1967.53 1242.5,1956C 1240.38,1954.27 1238.88,1952.1 1238,1949.5C 1203.65,1862.07 1188.98,1771.41 1194,1677.5C 1198.83,1596.66 1216.17,1518.66 1246,1443.5C 1320.39,1368.94 1394.89,1294.6 1469.5,1220.5 Z"/></g>
<g><path style="opacity:1" fill="#fefefe" d="M 1346.5,1463.5 C 1351.84,1463.33 1357.18,1463.5 1362.5,1464C 1437.72,1484.43 1512.89,1504.93 1588,1525.5C 1586.67,1533.49 1585,1541.49 1583,1549.5C 1560.77,1629.6 1538.94,1709.76 1517.5,1790C 1438.96,1770.78 1360.63,1750.45 1282.5,1729C 1271.61,1721.72 1266.77,1711.55 1268,1698.5C 1287.67,1626.82 1307.34,1555.15 1327,1483.5C 1330.35,1473.65 1336.85,1466.98 1346.5,1463.5 Z"/></g>
<g><path style="opacity:1" fill="#fefefe" d="M 1616.5,1567.5 C 1685.56,1584.86 1754.56,1602.52 1823.5,1620.5C 1824.63,1622.07 1824.8,1623.74 1824,1625.5C 1806.05,1690.31 1788.88,1755.31 1772.5,1820.5C 1703.48,1803.16 1634.48,1785.66 1565.5,1768C 1564.57,1767.61 1563.91,1766.95 1563.5,1766C 1581.4,1699.88 1599.07,1633.71 1616.5,1567.5 Z"/></g>
</svg>
