<svg id="Ebene_1" data-name="Ebene 1" xmlns="http://www.w3.org/2000/svg" viewBox="0 0 1417.32 1417.32"><defs><style>.cls-1{fill:#c91835;}</style></defs><title>Zeichenfläche 1</title><path class="cls-1" d="M329.43,688.13a41.53,41.53,0,0,0-15.15,56.56l155.56,269.42a41.49,41.49,0,0,0,56.53,15.14L817.22,861.34,620.28,520.21Z"/><path class="cls-1" d="M666.25,549.17,813.63,804.43l291.62-168.37L957.88,380.81Zm212.45-1.81-28.84,16.79a10,10,0,0,1-13.58-3.58l-24.41-41.92a10,10,0,0,1,3.58-13.58l28.83-16.8a10,10,0,0,1,13.59,3.59l24.41,41.92A10,10,0,0,1,878.7,547.36Zm77.36,132.81L927.22,697a10,10,0,0,1-13.58-3.6l-24.41-41.91a9.94,9.94,0,0,1,3.58-13.58l28.83-16.79a10,10,0,0,1,13.58,3.58l24.43,41.91A10,10,0,0,1,956.06,680.17Z"/><path class="cls-1" d="M1257.75,221.6,755.77,9.49a121.7,121.7,0,0,0-94.27,0l-502,212.14C113.22,241.3,83.34,287,83.34,338V779a125.6,125.6,0,0,0,9.26,47.81c28.09,70.24,187.59,428.42,570.83,581.79a121.62,121.62,0,0,0,90.47,0c383.21-153.35,542.72-511.54,570.92-582A129.18,129.18,0,0,0,1334,779V338C1334,286.63,1304,240.91,1257.75,221.6ZM1222.43,779a17.93,17.93,0,0,1-1.28,6.4C1196,848.23,1053.43,1168.58,712.49,1305a10.08,10.08,0,0,1-7.63,0C363.88,1168.57,221.29,848.23,196,784.93a16.05,16.05,0,0,1-1.08-5.93V338c0-6,3.38-11.65,8.09-13.65L704.85,112.29a9.85,9.85,0,0,1,3.81-.79,9.6,9.6,0,0,1,3.75.77l502.14,212.16c4.65,1.95,7.88,7.53,7.88,13.57Z"/></svg>